<svg width="1000" height="1000" viewBox="0 0 1000 1000" fill="none" xmlns="http://www.w3.org/2000/svg">
<path d="M843.75 218.75H156.25C104.473 218.75 62.5 260.723 62.5 312.5V687.5C62.5 739.277 104.473 781.25 156.25 781.25H843.75C895.527 781.25 937.5 739.277 937.5 687.5V312.5C937.5 260.723 895.527 218.75 843.75 218.75Z" fill="#E6E6E6"/>
<path opacity="0.15" d="M843.75 218.75H156.25C104.469 218.75 62.5 260.719 62.5 312.5V687.5C62.5 739.281 104.469 781.25 156.25 781.25H843.75C895.531 781.25 937.5 739.281 937.5 687.5V312.5C937.5 260.719 895.531 218.75 843.75 218.75ZM906.25 687.5C906.25 721.969 878.219 750 843.75 750H156.25C121.781 750 93.75 721.969 93.75 687.5V312.5C93.75 278.031 121.781 250 156.25 250H843.75C878.219 250 906.25 278.031 906.25 312.5V687.5Z" fill="black"/>
<path opacity="0.2" d="M843.75 250H156.25C121.719 250 93.75 277.969 93.75 312.5V343.75C93.75 309.219 121.719 281.25 156.25 281.25H843.75C878.281 281.25 906.25 309.219 906.25 343.75V312.5C906.25 277.969 878.281 250 843.75 250Z" fill="white"/>
<path d="M676.406 417.5L512.344 316C504.781 311.344 495.25 311.344 487.687 316L323.625 417.531C316.719 421.812 312.531 429.344 312.531 437.469V460.937C312.531 467.156 315 473.125 319.406 477.5C323.812 481.875 329.75 484.375 335.969 484.375H664.094C677.031 484.375 687.531 473.844 687.531 460.906V437.437C687.531 429.312 683.281 421.781 676.406 417.5Z" fill="#1A1A1A"/>
<path d="M664.062 640.625H640.625V539.062C640.625 526.125 630.125 515.625 617.188 515.625C604.25 515.625 593.75 526.125 593.75 539.062V640.625H523.438V539.062C523.438 526.125 512.938 515.625 500 515.625C487.062 515.625 476.562 526.125 476.562 539.062V640.625H406.25V539.062C406.25 526.125 395.75 515.625 382.812 515.625C369.875 515.625 359.375 526.125 359.375 539.062V640.625H335.938C323 640.625 312.5 651.125 312.5 664.062C312.5 677 323 687.5 335.938 687.5H664.062C677 687.5 687.5 677 687.5 664.062C687.5 651.125 677 640.625 664.062 640.625Z" fill="#1A1A1A"/>
</svg>
